Patient4_TMGait_0pt7_01_right_01_EMG.mot
version=1
nRows=36
nColumns=33
inDegrees=no
endheader
time	1LAddLong	2LGlutMax	3LGlutMed	4LIliopsoas	5LSemiMemb	6LBicFemLong	7LRecFem	8LVastMed	9LVastLat	10LGasMed	11LTibAnt	12lTibPost	13LPeroneusLong	14LSol	15LExtDigLong	16LFlexDigLong	17RAddLong	18RGlutMax	19RGlutMed	20RIliopsoas	21RSemiMemb	22RBicFemLong	23RRecFem	24RVastMed	25RVastLat	26RGasMed	27RTibAnt	28RTibPost	29RPeroneusLong	30RSol	31RExtDigLong	32RFlexDigLong
1.773	-0.002899	-0.05249	0.06485	0.001526	0.024719	0.00885	0.41565	-0.017395	-0.0177	-0.016937	0.079498	-0.02182	0.018463	-0.069122	-0.13931	-0.10056	0.036469	-0.17593	-0.001984	0.001221	-0.31723	0.070496	-0.052643	-0.069275	0.018463	-0.010071	0.0737	-0.00412	-0.017395	0.026093	0.005035	-0.002289
1.774	0.001373	-0.040741	0.10635	0.002747	0.003662	-0.015717	0.41306	-0.049438	-0.018463	-0.026245	-0.16312	0.021515	0.052185	-0.095215	-0.22614	-0.040283	0.015869	-0.14603	-0.00351	-0.018768	-0.11902	0.051117	0.013275	-0.065613	0.005951	-0.005188	0.019989	-0.006866	0.72022	-0.063019	0.002594	-0.004883
1.775	0.001831	-0.039368	0.053558	0.005493	0.003204	-0.040283	0.39032	-0.017548	-0.027313	0.002136	-0.088806	0.009613	0.048981	-0.035248	0.032043	-0.022125	-0.011597	-0.093231	0.066376	0.005646	0.25101	0.031586	0.065002	-0.03479	-0.007172	-0.012512	-0.019989	-0.002136	0.75699	-0.033264	0.002594	-0.007477
1.776	0.001373	-0.058441	0.037994	-0.006256	0.007935	-0.021362	0.45349	-0.001068	-0.020447	-0.015869	-0.081024	0.006561	0.1178	0.026398	0.34012	-0.010376	-0.025482	-0.11261	0.015106	0.065002	0.30151	-0.041199	0.071106	-0.050507	0.020447	-0.007935	-0.050354	-0.007935	0.44632	-0.045166	0.001068	-0.002747
1.777	0.007629	-0.016785	0.11887	0.002747	0.002289	-0.014343	0.44403	-0.015259	-0.012207	-0.010071	-0.24963	0.005798	0.085602	0.041656	-0.15839	-0.015564	-0.032654	-0.1355	-0.18005	0.048218	0.19226	-0.064697	0.06546	-0.02182	0.005035	-0.012054	-0.016174	-0.001068	0.050049	-0.012207	-0.002899	0.000153
1.778	0	-0.002594	0.042114	0.02655	0.009613	-0.016785	0.41611	-0.010834	-0.026245	0.004883	-0.19348	-0.010223	-0.017548	0.12268	0.063934	-0.001678	-0.055084	-0.11643	-0.15488	0.016937	0.023499	-0.017242	0.057526	-0.016937	0.013428	-0.009918	0.012512	-0.006409	-0.055389	0.002899	0.002747	-0.00351
1.779	-0.009918	0.011292	0.001526	0.016937	0.011749	0.028839	0.45242	-0.005493	-0.058746	0.001984	0.033417	0.002289	0.007629	0.14465	0.16495	-0.006561	-0.025177	-0.080414	0.20081	-0.045471	-0.015869	-0.010071	0.032959	-0.093079	-0.001068	-0.010071	0.01358	-0.003815	0.16068	0.000153	0.007629	-0.011749
1.78	-0.009613	0.062714	0.044556	-0.001678	0.005341	0.016022	0.43564	0.004272	-0.059052	0.002747	-0.018311	-0.005646	-0.01709	-0.018921	-0.17883	-0.037231	0.003204	-0.056	0.11948	-0.018768	-0.046539	-0.009766	0.012207	-0.09079	-0.004272	-0.011902	0.036163	-0.007477	0.71823	-0.018463	0.000763	-0.00824
1.781	-0.00473	0.052948	0.13016	-0.005341	-0.034332	-0.022125	0.38498	0.009308	-0.063477	0.000916	-0.099487	-0.00351	0.000305	-0.034637	-0.36163	-0.028534	0.00824	-0.10757	-0.10422	0.018921	-0.013123	0.006409	0.004883	-0.10101	-0.006104	-0.016479	0.053253	-0.003662	0.8316	-0.016327	0.008392	-0.014496
1.782	0.007019	0.06012	0.063477	0.011139	-0.079803	-0.062103	0.36743	0.00824	-0.042114	-0.004883	-0.095367	-0.001373	0.042877	-0.1152	-0.34515	0.007782	0.005188	-0.070038	-0.2417	0.055084	-0.032654	-0.001526	-0.027161	-0.074005	0.002594	-0.00946	0.041962	-0.007019	0.31677	-0.037689	0.003815	-0.001678
1.783	0.022125	0.070038	0.047607	0.023193	-0.041809	-0.037537	0.45593	0.001831	-0.083008	0.015717	-0.028229	0.001221	-0.003204	-0.048065	0.044861	0.033264	-0.001221	-0.049744	-0.11002	0.04715	-0.033875	0.023956	-0.026245	-0.088806	0.006561	-0.004425	-0.006409	-0.003815	-0.33814	-0.037537	0.005493	0.000458
1.784	0.006409	0.077362	0.057678	0.008698	0.024109	-0.028534	0.44998	0.004272	-0.23743	0.043182	0.053101	0.005798	-0.049896	-0.018921	-0.048828	0.074005	-0.011902	-0.036926	0.24536	0.004578	0.003967	0.037384	-0.050964	-0.054626	0.011139	-0.013123	0.055084	-0.003357	-0.56	0.012054	0.001373	0.006714
1.785	0.009766	0.11093	0.040131	0.014648	0.050812	-0.020142	0.43228	0.006104	-0.15686	0.029755	0.10559	0.000458	-0.11673	0.042725	0.054474	0.017395	-0.036774	-0.016174	0.36087	-0.077515	0.062866	0.043793	-0.053406	-0.059052	0.017853	-0.014191	0.10651	-0.00412	-0.52689	0.025787	0.002747	0.013123
1.786	0.013123	0.12116	0.008545	0.017853	0.029602	-0.009308	0.42954	0.002594	-0.085144	-0.010834	0.020294	0.001984	-0.031281	0.10483	0.06012	-0.014343	-0.029144	-0.087585	0.021057	-0.16281	0.014801	0.007782	-0.093689	-0.06546	0.006714	-0.010681	0.14145	-0.002441	-0.71457	-0.002747	0.002594	0.006561
1.787	0.012512	0.10056	-0.027924	-0.00061	0.009766	-0.007172	0.46265	0.008392	-0.030212	0.012512	-0.021057	-0.001221	-0.031738	0.039063	-0.02655	-0.009308	-0.016785	-0.0383	-0.053711	-0.12375	-0.019989	-0.008392	-0.059814	-0.062866	0.010681	-0.01358	0.13687	-0.005341	-0.084076	-0.044861	0.000458	0.010223
1.788	0.003052	0.10574	-0.025024	0.007935	0.008545	-0.011139	0.3418	0.016785	-0.077515	0.043182	0.001984	-0.000458	-0.005951	-0.037231	0.016937	0.03006	0.012512	-0.041199	-0.022736	-0.040436	-0.024719	-0.020142	-0.011292	-0.040436	0.004272	-0.01709	-0.007324	-0.00412	0.33615	-0.083618	0.010071	0.012665
1.789	0.005493	0.088043	-0.036316	0.002289	0.010223	-0.03479	0.15808	0.010223	-0.014038	0.031433	-0.051575	0.007477	0.089722	-0.09552	0.11688	0.049896	0.066986	-0.014648	0.062561	-0.005341	0.041656	-0.043335	-0.020447	-0.081635	0.005798	-0.018311	-0.077209	-0.004425	0.74265	-0.12497	0.005341	0.024414
1.79	0.009766	0.1091	-0.021667	-0.003052	0.00412	-0.027618	0.22934	0.005798	0.036469	0.020142	-0.035706	0.011292	0.12131	-0.062256	0.27679	-0.45853	0.088043	0.011902	0.000763	0.1181	-0.010376	-0.10162	0.003662	-0.020599	-0.009155	-0.016174	0.095062	-0.004272	0.24902	-0.12405	0.005035	0.019684
1.791	0.007782	0.1091	-0.003052	0.015564	0.006409	-0.008087	0.28366	0.005646	-0.037994	0.061798	0.037842	0.004578	0.012207	-0.044403	0.57053	0.079956	0.10223	0.075531	-0.058289	0.15259	-0.007629	-0.13657	-0.016022	-0.065308	-0.001831	-0.018158	0.16373	-0.009003	-0.056	-0.055084	0.003815	0.033264
1.792	0.005493	0.078583	-0.027161	0.023499	0.010376	-0.018768	0.31097	0.009155	-0.096436	0.046082	-0.1239	0.00351	0.023193	-0.00061	0.44311	0.23361	0.045624	0.049744	-0.080719	0.14679	-0.13229	-0.13733	-0.078125	-0.073853	0.003815	-0.012512	0.35278	-0.00351	-0.46402	-0.041809	0.002289	0.032654
1.793	0.00824	0.081177	-0.026855	0.037537	0.001373	-0.00885	0.30838	0.012817	-0.089874	0.015717	-0.24628	0.003204	0.045166	0.055542	0.77133	0.010681	-0.009766	0.097809	-0.082703	0.069885	-0.19211	-0.042725	-0.053864	-0.077667	-0.002899	-0.024872	0.32028	-0.002594	-0.76675	-0.012665	0.002594	0.034637
1.794	0.003052	0.095367	0.019379	0.018616	-0.002136	-0.01297	0.30106	0.013428	-0.11108	-0.021362	-0.015411	-0.005188	0.049744	0.15411	0.065002	-0.03952	-0.076752	0.090637	-0.11154	-0.042572	0.13092	0.091248	-0.094147	-0.058594	0.011292	-0.029144	0.086823	-0.007782	-0.9288	-0.021057	0.004578	0.032959
1.795	-0.000458	0.096436	0.024414	0.023956	0.002289	-0.032959	0.23331	0.015259	-0.02182	-0.020752	0.25467	0.000153	-0.037079	0.15671	-0.29724	0.13718	-0.098267	0.075226	0.067291	-0.059204	0.12711	0.18097	-0.057068	-0.010223	0.012512	-0.020752	-0.24872	-0.003815	-0.8081	0.043488	0.002289	0.032349
1.796	0.001984	0.076447	0.03952	-0.006561	-0.00061	-0.017548	0.27115	0.010834	0.052032	0.010376	0.36011	0.01709	-0.088348	0.11978	-0.25192	0.06546	-0.071411	0.08194	-0.0354	0.04715	-0.010681	0.16647	-0.061188	-0.000763	-0.010681	-0.016632	-0.35629	-0.003815	0.37994	-0.014648	0.000153	0.031128
1.797	0.005646	0.076447	0.032654	-0.005646	0.001221	-0.011597	0.31189	0.00885	-0.007019	0.004425	0.15701	-0.009613	-0.080261	0.10742	0.10666	-0.006104	-0.036469	0.13229	-0.03479	0.086365	-0.043182	0.049438	-0.050049	-0.034637	-0.016174	-0.019226	-0.29602	-0.005188	-0.06073	-0.027466	0.007629	0.032043
1.798	0.007935	0.10666	0.045776	0.01297	0.005035	-0.010071	0.31174	0.010986	-0.018768	0.029602	-0.007324	0.009918	0.001221	0.033264	-1.0651	-0.024261	0.000305	0.092926	0.067902	0.039978	-0.028992	0.007172	-0.045776	-0.096588	-0.012665	-0.019073	-0.21316	-0.007629	0.22415	0.008087	0.002594	0.033112
1.799	0.012665	0.12863	0.084076	-0.002136	0.011597	-0.005798	0.27527	0.00473	-0.025482	0.014343	0.11383	0.02533	0.031738	0.086823	-1.0098	-0.021515	0.10605	0.09903	0.067444	-0.00061	-0.058899	0.055237	0.006714	-0.13657	-0.021667	-0.029297	-0.19058	-0.005341	-0.10086	0.054016	0.005341	0.038757
1.8	0.005035	0.14587	0.074768	0.003357	0.005798	-0.011597	0.26901	0.00885	0.036011	0.015717	0.003815	0.005188	0.041199	0.060577	-0.61752	-0.026703	0.19989	0.053864	-0.018005	-0.016632	-0.067444	0.10208	0.007019	-0.13428	-0.009613	-0.032654	-0.14435	-0.00473	0.7225	0.014648	0.006714	0.053711
1.801	0.002136	0.10208	0.090027	0.007019	0.000458	0.012207	0.27344	0.010376	0.043335	0.009918	-0.1181	-0.006866	0.066223	-0.002441	-0.43915	-0.006714	0.23666	0.11139	0.015717	-0.00885	-0.13687	0.13214	0.02594	-0.13382	-0.027771	-0.036621	-0.028687	-0.008087	0.39795	0.00412	0.003662	0.056
1.802	0.000305	0.076752	0.079956	0.016479	0.03067	0.014038	0.25787	0.011139	0.035706	-0.007324	-0.21088	-0.001984	0.074158	-0.041656	-0.30182	-0.018463	0.19745	0.088043	-0.076752	-0.03479	-0.10773	0.14664	-0.015259	-0.097046	-0.007019	-0.048523	-0.012817	-0.000916	-0.002441	0.021515	0.002899	0.041199
1.803	-0.001221	0.071106	0.12039	-0.007172	0.011749	0.001984	0.27374	0.009613	-0.034637	0.006256	-0.1236	0.003815	0.075226	-0.12131	-0.22034	-0.007782	0.11353	0.087585	-0.083466	-0.024261	0.082703	0.10086	-0.024414	-0.097656	-0.016327	-0.057068	-0.031128	-0.005035	-0.05661	0.007477	0.002594	-0.008698
1.804	-0.004883	0.10025	0.079651	-0.00351	-0.028229	-0.040588	0.25299	0.009155	-0.07782	0.013275	-0.078735	-0.001221	0.017242	-0.20721	-0.070648	-0.000763	0.049133	0.10162	-0.069427	-0.024719	0.001221	-0.002289	-0.001221	-0.11063	-0.009766	-0.066681	-0.048523	-0.00412	0.11475	0.005646	0.001373	-0.071259
1.805	0.003662	0.089569	0.033569	-0.00885	-0.035553	-0.06012	0.21484	0.01358	-0.067596	0.03952	0.09201	0.006256	-0.13062	-0.22659	0.12573	-0.021362	-0.015106	0.13367	-0.012054	-0.006714	-0.1059	-0.041199	-0.033569	-0.051727	-0.009003	-0.065918	-0.05127	-0.005646	0.24368	-0.08606	0.007629	-0.12985
1.806	0.012817	0.066376	0.09964	0.007477	-0.020142	-0.055389	0.23377	0.01297	-0.069427	0.044098	0.093536	0.002289	-0.13077	-0.20386	0.099182	-0.026398	-0.099182	0.15625	-0.027313	-0.092468	0.020905	-0.031433	-0.042114	0.011749	0.019684	-0.066681	-0.018768	-0.005493	-0.33646	-0.074158	0.005646	-0.18829
1.807	0.002289	0.050201	0.24506	0.005798	-0.023499	-0.019836	0.23148	0.015259	-0.055542	0.019379	0.10346	0.000458	-0.086365	-0.15701	0.2919	-0.55939	-0.11963	0.12421	-0.038605	-0.11551	-0.053101	-0.040283	-0.033264	0.019989	0.008392	-0.059967	0.000458	-0.009613	0.076904	-0.024719	0.00351	-0.25375
1.808	-0.000458	0.045929	0.18417	0.019684	0.002899	0.005951	0.22949	0.014038	-0.103	-0.002136	0.034027	0.005646	-0.094452	-0.012207	0.39368	-0.11536	-0.1503	0.12116	-0.13626	-0.040131	-0.062714	-0.034943	-0.037994	0.037842	0.007629	-0.053406	-0.033722	-0.010376	0.44205	0.000916	0.005341	-0.25787
